<svg width="26" height="34" viewBox="0 0 26 34" fill="none" xmlns="http://www.w3.org/2000/svg">
<path fill-rule="evenodd" clip-rule="evenodd" d="M13.1083 33.9999C14.8988 34.0099 16.6822 32.8494 16.9909 30.5723C17.3265 28.0965 16.73 25.2726 15.761 23.0211H21C23.2104 23.0211 25 21.2262 25 19.0183C25 18.3317 24.8266 17.6849 24.5218 17.1199C25.4233 16.3861 26 15.2672 26 14.0134C26 12.7596 25.4234 11.6407 24.5219 10.9069C24.8266 10.342 25 9.69522 25 9.00875C25 7.42636 24.0812 6.05666 22.7468 5.40714C22.9104 4.97022 23 4.49719 23 4.00388C23 1.79598 21.2104 0.00102234 19 0.00102234H12C11.6438 0.00102234 11.294 0.032177 10.9535 0.0921402C9.63208 0.225525 8.32761 0.504936 7.06424 0.92646L2.0505 2.5993L2.367 3.54789L2.0505 2.5993C0.825895 3.00789 0 4.1541 0 5.44508V18.5781C0 18.6432 0.00210667 18.708 0.00627249 18.7725C0.00207037 18.8536 0 18.9358 0 19.019C0 20.1733 0.449823 21.0399 1.12276 21.7341C1.73082 22.3614 2.54445 22.8669 3.30478 23.3394C3.3255 23.3523 3.34619 23.3651 3.36683 23.378C4.45785 24.0562 5.58517 24.7622 6.59013 25.8545C7.57996 26.9302 8.47894 28.4151 9.00796 30.6667C9.52081 32.8496 11.3418 33.9901 13.1083 33.9999ZM13.1194 32C12.1923 31.9948 11.2376 31.4124 10.9549 30.2093C10.3489 27.6296 9.28926 25.8342 8.06191 24.5003C6.86084 23.1949 5.52602 22.3652 4.45254 21.6979L4.4227 21.6794C3.58293 21.1574 2.97711 20.7736 2.55877 20.342C2.18874 19.9603 2 19.5749 2 19.019C2 18.953 2.00217 18.891 2.0062 18.8328C2.00992 18.779 2.00929 18.725 2.0043 18.6713C2.00146 18.6407 2 18.6096 2 18.5781V5.44508C2 5.01475 2.2753 4.63268 2.6835 4.49648L7.69723 2.82365C8.83159 2.44517 10.0032 2.19558 11.19 2.07847C11.2176 2.07575 11.245 2.07188 11.2723 2.06688C11.5075 2.02371 11.7507 2.00102 12 2.00102H19C20.1033 2.00102 21 2.89807 21 4.00388C21 4.51983 20.8059 4.98884 20.485 5.34491C20.2296 5.62826 20.1576 6.03224 20.2995 6.38635C20.4414 6.74046 20.7724 6.983 21.1528 7.01162C22.1844 7.08923 23 7.95466 23 9.00875C23 9.58485 22.7577 10.1036 22.3664 10.4707C22.1143 10.7072 22.0022 11.0573 22.0701 11.3963C22.1379 11.7353 22.3761 12.0152 22.6998 12.1365C23.4605 12.4214 24 13.1563 24 14.0134C24 14.8706 23.4604 15.6054 22.6997 15.8904C22.3759 16.0116 22.1377 16.2916 22.0699 16.6306C22.002 16.9696 22.1141 17.3197 22.3663 17.5562C22.7577 17.9233 23 18.4421 23 19.0183C23 20.1241 22.1033 21.0211 21 21.0211H14.1462C13.7888 21.0211 13.4585 21.2119 13.2799 21.5216C13.1014 21.8312 13.1017 22.2127 13.2807 22.522C14.4946 24.6194 15.3518 27.7754 15.0091 30.3036C14.8506 31.4725 14.0226 32.005 13.1194 32Z" fill="#97A2B5"/>
</svg>
