<svg width="26" height="34" viewBox="0 0 26 34" fill="none" xmlns="http://www.w3.org/2000/svg">
<path fill-rule="evenodd" clip-rule="evenodd" d="M13.1083 6.35781e-05C14.8988 -0.00989713 16.6822 1.15062 16.9909 3.42775C17.3265 5.90347 16.73 8.72739 15.761 10.9789H21C23.2104 10.9789 25 12.7738 25 14.9817C25 15.6683 24.8266 16.3151 24.5218 16.8801C25.4233 17.6139 26 18.7328 26 19.9866C26 21.2404 25.4234 22.3593 24.5219 23.0931C24.8266 23.658 25 24.3048 25 24.9912C25 26.5736 24.0812 27.9433 22.7468 28.5929C22.9104 29.0298 23 29.5028 23 29.9961C23 32.204 21.2104 33.999 19 33.999H12C11.6438 33.999 11.294 33.9678 10.9535 33.9079C9.63208 33.7745 8.32761 33.4951 7.06424 33.0735L2.0505 31.4007L2.367 30.4521L2.0505 31.4007C0.825895 30.9921 0 29.8459 0 28.5549V15.4219C0 15.3568 0.00210667 15.292 0.00627249 15.2275C0.00207037 15.1464 0 15.0642 0 14.981C0 13.8267 0.449823 12.9601 1.12276 12.2659C1.73082 11.6386 2.54445 11.1331 3.30478 10.6606C3.3255 10.6477 3.34619 10.6349 3.36683 10.622C4.45785 9.94383 5.58517 9.23775 6.59013 8.14554C7.57996 7.06978 8.47894 5.5849 9.00796 3.3333C9.52081 1.15045 11.3418 0.00989095 13.1083 6.35781e-05ZM13.1194 2.00003C12.1923 2.00519 11.2376 2.58762 10.9549 3.79074C10.3489 6.37039 9.28926 8.16584 8.06191 9.49975C6.86084 10.8051 5.52602 11.6348 4.45254 12.3021L4.4227 12.3206C3.58293 12.8426 2.97711 13.2264 2.55877 13.658C2.18874 14.0397 2 14.4251 2 14.981C2 15.047 2.00217 15.109 2.0062 15.1672C2.00992 15.221 2.00929 15.275 2.0043 15.3287C2.00146 15.3593 2 15.3904 2 15.4219V28.5549C2 28.9852 2.2753 29.3673 2.6835 29.5035L7.69723 31.1764C8.83159 31.5548 10.0032 31.8044 11.19 31.9215C11.2176 31.9242 11.245 31.9281 11.2723 31.9331C11.5075 31.9763 11.7507 31.999 12 31.999H19C20.1033 31.999 21 31.1019 21 29.9961C21 29.4802 20.8059 29.0112 20.485 28.6551C20.2296 28.3717 20.1576 27.9678 20.2995 27.6137C20.4414 27.2595 20.7724 27.017 21.1528 26.9884C22.1844 26.9108 23 26.0453 23 24.9912C23 24.4151 22.7577 23.8964 22.3664 23.5293C22.1143 23.2928 22.0022 22.9427 22.0701 22.6037C22.1379 22.2647 22.3761 21.9848 22.6998 21.8635C23.4605 21.5786 24 20.8437 24 19.9866C24 19.1294 23.4604 18.3946 22.6997 18.1096C22.3759 17.9884 22.1377 17.7084 22.0699 17.3694C22.002 17.0304 22.1141 16.6803 22.3663 16.4438C22.7577 16.0767 23 15.5579 23 14.9817C23 13.8759 22.1033 12.9789 21 12.9789H14.1462C13.7888 12.9789 13.4585 12.7881 13.2799 12.4784C13.1014 12.1688 13.1017 11.7873 13.2807 11.478C14.4946 9.38062 15.3518 6.22465 15.0091 3.69641C14.8506 2.52751 14.0226 1.99501 13.1194 2.00003Z" fill="#44B156"/>
</svg>
