<svg width="14" height="18" viewBox="0 0 14 18" fill="none" xmlns="http://www.w3.org/2000/svg">
<path fill-rule="evenodd" clip-rule="evenodd" d="M2 7C2 4.23858 4.23858 2 7 2C9.76142 2 12 4.23858 12 7C12 8.43337 11.4488 10.2609 10.447 11.9917C9.5558 13.5315 8.35618 14.9111 7 15.8233C5.64382 14.9111 4.4442 13.5315 3.55299 11.9917C2.55124 10.2609 2 8.43337 2 7ZM7 0C3.13401 0 0 3.13401 0 7C0 8.88034 0.698764 11.0528 1.82201 12.9936C2.94855 14.94 4.56299 16.7592 6.50386 17.8682C6.81129 18.0439 7.18871 18.0439 7.49614 17.8682C9.43701 16.7592 11.0514 14.94 12.178 12.9936C13.3012 11.0528 14 8.88034 14 7C14 3.13401 10.866 0 7 0ZM6 7C6 6.44772 6.44772 6 7 6C7.55228 6 8 6.44772 8 7C8 7.55228 7.55228 8 7 8C6.44772 8 6 7.55228 6 7ZM7 4C5.34315 4 4 5.34315 4 7C4 8.65685 5.34315 10 7 10C8.65685 10 10 8.65685 10 7C10 5.34315 8.65685 4 7 4Z" fill="#A4AAC7"/>
</svg>
